<svg width="414" height="927" viewBox="0 0 414 927" fill="none" xmlns="http://www.w3.org/2000/svg">
<path d="M170 221C170 221 190 216 235 219C246.964 219.798 270.228 224.197 294 233C310.244 239.015 326.725 247.839 340 256C380.372 280.821 403 313 403 313" stroke="#AFAFAF" stroke-width="14" stroke-linecap="round"/>
<path d="M244 714C244 714 224 719 179 716C167.036 715.202 143.772 710.803 120 702C103.756 695.985 87.275 687.161 74 679C33.6279 654.179 11 622 11 622" stroke="#AFAFAF" stroke-width="14" stroke-linecap="round"/>
<path d="M207 881V781" stroke="#AFAFAF" stroke-width="14" stroke-linecap="round"/>
<path d="M407 555V474" stroke="#AFAFAF" stroke-width="14" stroke-linecap="round"/>
<path d="M7 460L7 356" stroke="#AFAFAF" stroke-width="14" stroke-linecap="round"/>
<path d="M207 920V910" stroke="#AFAFAF" stroke-width="14" stroke-linecap="round"/>
<path d="M375 32L289 134" stroke="#AFAFAF" stroke-width="14" stroke-linecap="round"/>
<path d="M11 313C32 284 69 255 104 240" stroke="#AFAFAF" stroke-width="14" stroke-linecap="round"/>
<path d="M402 622C380 650 346 680 310 694" stroke="#AFAFAF" stroke-width="14" stroke-linecap="round"/>
<path d="M12 117V67V55.3181C12 50.4838 12.9225 45.6939 14.7179 41.2053L15.5595 39.1013C17.1745 35.0637 19.4706 31.3333 22.3477 28.0726L27.576 22.1472C31.1509 18.0957 35.5487 14.8531 40.476 12.6358L45.5623 10.347C50.4649 8.14079 55.7799 7 61.1561 7H66.2394C72.6426 7 78.9418 8.61801 84.5524 11.7038L87.8527 13.519C93.2053 16.4629 97.7692 20.6538 101.158 25.7366L103.957 29.936C105.316 31.9739 106.474 34.1384 107.416 36.3992L108.692 39.4615C110.216 43.1176 111 47.0392 111 51V51" stroke="#AFAFAF" stroke-width="14" stroke-linecap="round"/>
<path d="M113 111V152.574C113 154.853 112.795 157.128 112.387 159.371L111.556 163.943C111.186 165.978 110.65 167.979 109.955 169.926L108.874 172.953C106.982 178.252 103.936 183.064 99.9578 187.042L96.2238 190.776C94.7438 192.256 93.144 193.612 91.4408 194.828L89.9094 195.922C83.4646 200.525 75.7424 203 67.8223 203H63H57.9784C50.1819 203 42.574 200.602 36.1869 196.131L36 196" stroke="#AFAFAF" stroke-width="14" stroke-linecap="round"/>
</svg>
