<svg width="424" height="926" viewBox="0 0 424 926" fill="none" xmlns="http://www.w3.org/2000/svg">
<path fill-rule="evenodd" clip-rule="evenodd" d="M211.034 892.193C217.661 892.193 223.034 897.566 223.034 904.193V913.855C223.034 920.483 217.661 925.855 211.034 925.855C204.406 925.855 199.034 920.483 199.034 913.855V904.193C199.034 897.566 204.406 892.193 211.034 892.193Z" fill="#AFAFAF"/>
<path fill-rule="evenodd" clip-rule="evenodd" d="M211.034 759.826C217.661 759.826 223.034 765.199 223.034 771.826V874.242C223.034 880.869 217.661 886.242 211.034 886.242C204.406 886.242 199.034 880.869 199.034 874.242V771.826C199.034 765.199 204.406 759.826 211.034 759.826Z" fill="#AFAFAF"/>
<path fill-rule="evenodd" clip-rule="evenodd" d="M132.752 222.308C160.609 212.773 191.588 209.036 212.038 209.101C238.863 209.187 270.637 214.817 300.234 225.323C312.844 229.798 325.168 235.198 336.628 241.507C363.191 256.132 380.792 273.224 404.932 296.666C405.877 297.583 406.831 298.509 407.796 299.446C412.553 304.061 412.667 311.658 408.052 316.415C403.436 321.171 395.839 321.285 391.083 316.67C390.444 316.049 389.811 315.435 389.184 314.827C364.217 290.594 348.744 275.575 325.053 262.531C314.87 256.925 303.753 252.039 292.206 247.94C264.911 238.252 235.823 233.178 211.962 233.101C193.819 233.043 165.533 236.455 140.524 245.015C121.063 251.676 114.476 255.286 102.88 261.64C100.339 263.032 97.5578 264.556 94.3476 266.273C94.1651 266.371 94.0409 266.439 93.9396 266.497C91.2085 268.056 69.5862 280.62 48.8876 298.731C34.6334 311.204 27.8381 323.074 25.0691 328.981C24.4149 330.377 24 332.345 24 335.185V601.419C24 605.011 24.7796 608.561 26.285 611.822C27.3605 614.153 28.7909 616.302 30.5253 618.194L37.1635 625.436L61.3155 650.421C63.0608 652.226 65.0409 653.789 67.2028 655.066L104.595 677.161L138.983 693.496C140.737 694.329 142.574 694.978 144.462 695.431L159.957 699.15C162.097 699.663 164.29 699.923 166.491 699.923H245.915C248.115 699.923 250.309 699.663 252.449 699.15L271.256 694.636L315.461 677.838C317.039 677.238 318.559 676.498 320.003 675.624L354.891 654.529C356.546 653.528 358.094 652.358 359.508 651.038L382.686 629.406C383.975 628.202 385.148 626.88 386.188 625.456L394.417 614.196C398.004 609.288 399.895 603.347 399.807 597.269L398.069 477.314C397.973 470.687 403.267 465.237 409.894 465.141C416.52 465.045 421.97 470.34 422.066 476.966L423.805 596.922C423.968 608.208 420.455 619.242 413.795 628.356L405.566 639.617C403.633 642.261 401.456 644.716 399.062 646.951L375.884 668.584C373.257 671.035 370.383 673.208 367.309 675.067L332.421 696.162C329.739 697.784 326.916 699.159 323.986 700.273L278.348 717.615L258.05 722.487C254.075 723.441 250.002 723.923 245.915 723.923H166.491C162.404 723.923 158.331 723.441 154.356 722.487L138.861 718.768C135.354 717.926 131.944 716.722 128.686 715.174L93.3183 698.375L54.9933 675.728C50.9784 673.356 47.301 670.454 44.0598 667.101L19.6867 641.888L12.8336 634.412C9.42259 630.691 6.60928 626.463 4.49393 621.88C1.53326 615.465 0 608.484 0 601.419V335.185C0 330.238 0.68762 324.449 3.33824 318.794C7.27605 310.394 15.936 295.674 33.0835 280.67C55.5556 261.007 78.7784 247.517 82.0414 245.654C82.4047 245.447 82.7394 245.265 83.0286 245.11C86.0327 243.504 88.7088 242.036 91.2141 240.663C103.22 234.081 111.303 229.65 132.752 222.308Z" fill="#AFAFAF"/>
<path fill-rule="evenodd" clip-rule="evenodd" d="M26.6219 9.47407C35.383 3.30881 45.8346 0 56.5475 0H61.3831C73.4712 0 85.1816 4.21134 94.501 11.91L97.0371 14.005C104.347 20.0441 109.867 27.967 113 36.9168L116.08 45.717C118.269 51.9723 114.973 58.8181 108.718 61.0075C102.462 63.1968 95.6167 59.9007 93.4273 53.6454L90.3473 44.8452C88.6606 40.0261 85.6883 35.7599 81.7519 32.5081L79.2158 30.4131C74.1977 26.2676 67.8921 24 61.3831 24H56.5475C50.779 24 45.1513 25.7817 40.4337 29.1014L36.6886 31.7369C31.2714 35.549 27.3811 41.1582 25.7091 47.5677L24.9067 50.6434C24.3047 52.9511 24 55.3263 24 57.7112V150.805C24 153.161 24.314 155.506 24.9338 157.778C26.882 164.922 31.7297 170.924 38.3028 174.333L40.7489 175.601C44.7314 177.666 49.1518 178.744 53.6378 178.744H62.59C68.5814 178.744 74.4148 176.822 79.233 173.261L80.0102 172.686C84.9361 169.046 88.5321 163.89 90.2472 158.01L91.6336 153.256C92.3765 150.709 92.7536 148.069 92.7536 145.416V124.077C92.7536 117.45 98.1262 112.077 104.754 112.077C111.381 112.077 116.754 117.45 116.754 124.077V145.416C116.754 150.344 116.053 155.246 114.674 159.976L113.287 164.73C110.102 175.65 103.424 185.225 94.2756 191.987L93.4983 192.561C84.5504 199.175 73.7169 202.744 62.59 202.744H53.6378C45.3066 202.744 37.0974 200.742 29.7013 196.907L27.2552 195.639C14.7295 189.144 5.49194 177.706 1.77951 164.093C0.598442 159.763 0 155.294 0 150.805V57.7112C0 53.2821 0.565881 48.871 1.6839 44.5853L2.48627 41.5095C5.5915 29.6062 12.8163 19.1891 22.8767 12.1095L26.6219 9.47407Z" fill="#AFAFAF"/>
<path fill-rule="evenodd" clip-rule="evenodd" d="M384.969 41.8926C390.028 46.1735 390.659 53.7453 386.378 58.8045L301.354 159.288C297.073 164.347 289.501 164.978 284.442 160.697C279.383 156.416 278.752 148.844 283.033 143.785L368.057 43.3019C372.338 38.2426 379.909 37.6117 384.969 41.8926Z" fill="#AFAFAF"/>
</svg>
