<?xml version="1.0" encoding="UTF-8" standalone="no"?>
<svg
   width="429"
   height="937"
   viewBox="0 0 429 937"
   fill="none"
   version="1.1"
   id="svg11"
   sodipodi:docname="Phone-2-glyphs.svg"
   inkscape:version="1.3.2 (091e20ef0f, 2023-11-25)"
   xmlns:inkscape="http://www.inkscape.org/namespaces/inkscape"
   xmlns:sodipodi="http://sodipodi.sourceforge.net/DTD/sodipodi-0.dtd"
   xmlns="http://www.w3.org/2000/svg"
   xmlns:svg="http://www.w3.org/2000/svg">
  <defs
     id="defs11" />
  <sodipodi:namedview
     id="namedview11"
     pagecolor="#505050"
     bordercolor="#ffffff"
     borderopacity="1"
     inkscape:showpageshadow="0"
     inkscape:pageopacity="0"
     inkscape:pagecheckerboard="1"
     inkscape:deskcolor="#505050"
     inkscape:zoom="1.2892209"
     inkscape:cx="501.07781"
     inkscape:cy="441.35182"
     inkscape:window-width="2560"
     inkscape:window-height="1500"
     inkscape:window-x="0"
     inkscape:window-y="0"
     inkscape:window-maximized="1"
     inkscape:current-layer="svg11" />
  <path
     fill-rule="evenodd"
     clip-rule="evenodd"
     d="M181.169 237.655C174.758 239.226 168.276 235.321 166.673 228.91C165.065 222.481 168.974 215.966 175.404 214.358L178.314 226C175.404 214.358 175.408 214.357 175.412 214.356L175.42 214.354L175.438 214.35L175.48 214.339C175.51 214.332 175.545 214.324 175.585 214.314C175.665 214.295 175.764 214.272 175.883 214.244C176.122 214.19 176.44 214.12 176.839 214.038C177.636 213.874 178.755 213.66 180.205 213.423C183.105 212.948 187.329 212.379 192.955 211.915C204.206 210.989 221.053 210.489 244.113 212.027C257.375 212.911 281.775 217.598 306.481 226.747C323.712 233.127 340.925 242.371 354.599 250.777C375.87 263.855 392.402 278.823 403.61 290.497C409.227 296.346 413.541 301.405 416.48 305.04C417.951 306.859 419.079 308.325 419.857 309.36C420.246 309.878 420.547 310.288 420.76 310.581C420.866 310.727 420.95 310.844 421.012 310.931L421.088 311.037L421.114 311.073L421.123 311.087L421.127 311.093C421.129 311.095 421.131 311.098 411.314 318L421.131 311.098C424.943 316.519 423.638 324.004 418.217 327.816C412.798 331.626 405.318 330.325 401.504 324.91L401.504 324.91C401.503 324.909 401.502 324.908 401.501 324.907L401.498 324.902M401.498 324.902L401.485 324.883C401.458 324.847 401.411 324.78 401.341 324.685C401.203 324.494 400.978 324.188 400.67 323.777C400.052 322.955 399.098 321.714 397.816 320.128C395.25 316.954 391.385 312.417 386.298 307.119C376.099 296.497 361.131 282.966 342.03 271.223C329.154 263.307 313.405 254.903 298.147 249.253C275.31 240.797 253.181 236.684 242.516 235.973C220.576 234.511 204.923 235.011 194.924 235.834C189.925 236.246 186.336 236.739 184.081 237.108C182.952 237.293 182.157 237.446 181.685 237.544C181.448 237.592 181.293 237.627 181.217 237.644C181.193 237.65 181.178 237.653 181.169 237.655"
     fill="#AFAFAF"
     id="c1" />
  <path
     fill-rule="evenodd"
     clip-rule="evenodd"
     d="M249.46 707.345C255.871 705.774 262.353 709.679 263.956 716.09C265.564 722.519 261.655 729.034 255.225 730.642L252.315 719C255.225 730.642 255.221 730.643 255.217 730.644L255.209 730.646L255.191 730.65L255.149 730.661C255.119 730.668 255.084 730.676 255.044 730.686C254.964 730.705 254.865 730.728 254.746 730.756C254.507 730.81 254.189 730.88 253.79 730.962C252.993 731.126 251.874 731.34 250.424 731.577C247.524 732.052 243.3 732.621 237.675 733.085C226.423 734.011 209.576 734.511 186.516 732.973C173.254 732.089 148.854 727.402 124.148 718.253C106.917 711.873 89.7036 702.629 76.0298 694.223C54.7586 681.145 38.2274 666.177 27.0191 654.503C21.4025 648.654 17.0877 643.595 14.1487 639.96C12.6784 638.141 11.5497 636.675 10.7721 635.64C10.3832 635.122 10.0819 634.712 9.86931 634.419C9.763 634.273 9.67883 634.156 9.61699 634.069L9.54094 633.963L9.51549 633.927L9.50591 633.913L9.50191 633.907C9.50014 633.905 9.49844 633.902 19.3145 627L9.49844 633.902C5.68631 628.481 6.9908 620.996 12.4121 617.184C17.8308 613.374 25.3113 614.675 29.1251 620.09L29.1252 620.09C29.1261 620.091 29.1269 620.092 29.1277 620.093L29.1306 620.098M29.1306 620.098L29.1444 620.117C29.1706 620.153 29.2185 620.22 29.2877 620.315C29.4263 620.506 29.6506 620.812 29.9593 621.223C30.5768 622.045 31.5314 623.286 32.8132 624.872C35.3786 628.046 39.244 632.583 44.3309 637.881C54.5296 648.503 69.4985 662.034 88.5993 673.777C101.476 681.693 117.224 690.097 132.482 695.747C155.319 704.203 177.448 708.316 188.113 709.027C210.053 710.489 225.706 709.989 235.705 709.166C240.704 708.754 244.293 708.261 246.549 707.892C247.677 707.707 248.472 707.554 248.944 707.456C249.181 707.408 249.336 707.373 249.412 707.356C249.436 707.35 249.451 707.347 249.46 707.345"
     fill="#AFAFAF"
     id="c4" />
  <path
     fill-rule="evenodd"
     clip-rule="evenodd"
     d="M215.315 774C221.942 774 227.315 779.373 227.315 786V886C227.315 892.628 221.942 898 215.315 898C208.687 898 203.315 892.628 203.315 886V786C203.315 779.373 208.687 774 215.315 774Z"
     fill="#AFAFAF"
     id="d1" />
  <path
     fill-rule="evenodd"
     clip-rule="evenodd"
     d="M415.314 467C421.942 467 427.314 472.373 427.314 479V560C427.314 566.627 421.942 572 415.314 572C408.687 572 403.314 566.627 403.314 560V479C403.314 472.373 408.687 467 415.314 467Z"
     fill="#AFAFAF"
     id="c6" />
  <path
     fill-rule="evenodd"
     clip-rule="evenodd"
     d="M15.3146 349C21.942 349 27.3146 354.373 27.3146 361L27.3146 465C27.3146 471.627 21.942 477 15.3146 477C8.68716 477 3.31458 471.627 3.31458 465L3.31458 361C3.31458 354.373 8.68716 349 15.3146 349Z"
     fill="#AFAFAF"
     id="c3" />
  <path
     fill-rule="evenodd"
     clip-rule="evenodd"
     d="M215.315 903C221.942 903 227.315 908.373 227.315 915V925C227.315 931.627 221.942 937 215.315 937C208.687 937 203.315 931.627 203.315 925V915C203.315 908.373 208.687 903 215.315 903Z"
     fill="#AFAFAF"
     id="e1" />
  <path
     fill-rule="evenodd"
     clip-rule="evenodd"
     d="M391.05 27.8258C396.116 32.0978 396.761 39.6684 392.489 44.7352L306.489 146.735C302.217 151.802 294.646 152.446 289.579 148.174C284.512 143.902 283.868 136.332 288.14 131.265L374.14 29.2649C378.412 24.198 385.983 23.5537 391.05 27.8258Z"
     fill="#AFAFAF"
     id="b1" />
  <path
     fill-rule="evenodd"
     clip-rule="evenodd"
     d="M12.2764 327.719C6.90861 323.832 5.7082 316.33 9.59525 310.962C31.9558 280.083 70.7356 249.764 107.588 233.97C113.679 231.36 120.734 234.181 123.344 240.273C125.955 246.365 123.133 253.419 117.042 256.03C83.8935 270.236 48.6733 297.917 29.0339 325.038C25.1468 330.406 17.6443 331.606 12.2764 327.719Z"
     fill="#AFAFAF"
     id="c2" />
  <path
     fill-rule="evenodd"
     clip-rule="evenodd"
     d="M417.728 617.564C422.94 621.659 423.845 629.203 419.75 634.414C396.894 663.504 361.274 695.169 322.664 710.184C316.487 712.586 309.533 709.526 307.13 703.349C304.728 697.172 307.788 690.218 313.965 687.816C347.355 674.831 379.735 646.496 400.879 619.586C404.973 614.375 412.517 613.47 417.728 617.564Z"
     fill="#AFAFAF"
     id="c5" />
  <path
     fill-rule="evenodd"
     clip-rule="evenodd"
     d="M69.4707 24C65.7922 24 62.1557 24.7805 58.8012 26.29L53.7149 28.5789C50.3436 30.096 47.3346 32.3146 44.8886 35.0867L39.6604 41.012C37.6918 43.2431 36.1208 45.7955 35.0158 48.558L34.1742 50.662C32.9457 53.7331 32.3146 57.0104 32.3146 60.3181V122C32.3146 128.627 26.942 134 20.3146 134C13.6872 134 8.31458 128.627 8.31458 122V60.3181C8.31458 53.9572 9.52834 47.6546 11.8907 41.7486L12.7323 39.6447C14.8574 34.332 17.8785 29.4236 21.6643 25.1331L26.8925 19.2077C31.5963 13.8768 37.3829 9.61024 43.8662 6.69275L48.9525 4.40393C55.4033 1.50103 62.3968 0 69.4707 0H74.554C82.9792 0 91.2677 2.12897 98.65 6.1892L101.95 8.00442C108.993 11.878 114.998 17.3924 119.457 24.0802L122.257 28.2796C124.044 30.961 125.568 33.809 126.808 36.7838L128.084 39.8462C130.217 44.9647 131.315 50.4549 131.315 56C131.315 62.6274 125.942 68 119.315 68C112.687 68 107.315 62.6274 107.315 56C107.315 53.6235 106.844 51.2706 105.93 49.0769L104.654 46.0146C104.009 44.4677 103.217 42.9867 102.287 41.5924L99.4877 37.393C97.1693 33.9153 94.0466 31.0478 90.3843 29.0336L87.0839 27.2184C83.2451 25.1071 78.9351 24 74.554 24H69.4707Z"
     fill="#AFAFAF"
     id="a1" />
  <path
     fill-rule="evenodd"
     clip-rule="evenodd"
     d="M121.315 104C127.942 104 133.315 109.373 133.315 116V157.574C133.315 160.573 133.045 163.567 132.508 166.518L131.677 171.09C131.19 173.767 130.486 176.4 129.57 178.962L128.489 181.989C125.999 188.961 121.992 195.293 116.758 200.528L113.024 204.262C111.076 206.209 108.971 207.992 106.73 209.593L105.199 210.687C96.7187 216.744 86.558 220 76.1368 220H66.293C56.0343 220 46.024 216.845 37.6198 210.962L37.433 210.831C32.0036 207.03 30.6831 199.548 34.4837 194.119C38.2843 188.689 45.7667 187.369 51.1961 191.169L51.3829 191.3C55.7531 194.359 60.9585 196 66.293 196H76.1368C81.5558 196 86.8394 194.307 91.249 191.157L92.7805 190.063C93.9458 189.231 95.0404 188.304 96.0531 187.291L99.7871 183.557C102.509 180.835 104.593 177.542 105.888 173.917L106.969 170.89C107.444 169.558 107.811 168.189 108.064 166.796L108.895 162.225C109.174 160.69 109.315 159.133 109.315 157.574V116C109.315 109.373 114.687 104 121.315 104Z"
     fill="#AFAFAF"
     id="a2" />
</svg>
