<svg width="414" height="904" viewBox="0 0 414 904" fill="none" xmlns="http://www.w3.org/2000/svg">
<path d="M206.034 896.855V887.193" stroke="#AFAFAF" stroke-width="14" stroke-linecap="round"/>
<path d="M206.034 857.242V754.826" stroke="#AFAFAF" stroke-width="14" stroke-linecap="round"/>
<path d="M405.068 460.14L406.806 580.096C406.932 588.778 404.229 597.265 399.106 604.276L390.877 615.537C389.391 617.57 387.716 619.459 385.874 621.178L362.696 642.811C360.675 644.697 358.465 646.368 356.1 647.798L321.212 668.893C319.149 670.141 316.977 671.199 314.724 672.055L269.802 689.126L250.249 693.818C247.192 694.552 244.059 694.923 240.915 694.923H161.491C158.347 694.923 155.214 694.552 152.156 693.818L136.662 690.1C133.964 689.452 131.341 688.526 128.834 687.335L93.9565 670.768L56.098 648.397C53.0097 646.572 50.1809 644.34 47.6877 641.761L23.4251 616.662L16.6794 609.303C14.1068 606.496 11.9849 603.308 10.3894 599.851V599.851C8.15643 595.013 7 589.748 7 584.419V462.072V318.185C7 314.292 7.55126 310.413 9.20365 306.888C12.5571 299.734 20.2847 286.439 35.9855 272.701C57.5709 253.813 79.9935 240.787 82.9905 239.076C83.2228 238.943 83.4523 238.818 83.6881 238.692C101.318 229.262 106.813 225.159 131.638 216.662C158.071 207.614 187.703 204.04 207 204.101C232.343 204.182 262.774 209.534 291.22 219.631C303.299 223.919 315.019 229.061 325.841 235.019C351.784 249.303 368.573 265.957 394.44 291.058" stroke="#AFAFAF" stroke-width="14" stroke-linecap="round"/>
<path d="M104.585 44.6812L101.505 35.881C99.0949 28.9966 94.8488 22.902 89.2254 18.2566L86.6893 16.1615C79.5205 10.2395 70.5126 7 61.2141 7H56.3785C48.1377 7 40.0981 9.54524 33.3587 14.2877L29.6136 16.9232C21.8748 22.3691 16.3173 30.3822 13.9286 39.5386L13.1262 42.6144C12.2662 45.9111 11.8309 49.3042 11.8309 52.7112V145.805C11.8309 149.227 12.2872 152.634 13.1876 155.936V155.936C16.0179 166.314 23.0605 175.034 32.61 179.986L35.0561 181.254C40.7453 184.204 47.0601 185.744 53.4687 185.744H62.4209C70.9801 185.744 79.3135 182.998 86.1966 177.911L86.9738 177.337C94.0108 172.135 99.148 164.77 101.598 156.37L102.985 151.616C104.046 147.977 104.585 144.206 104.585 140.416V119.077" stroke="#AFAFAF" stroke-width="14" stroke-linecap="round"/>
<path d="M372.217 34.0532L287.193 134.536" stroke="#AFAFAF" stroke-width="14" stroke-linecap="round"/>
</svg>
